<svg xmlns="http://www.w3.org/2000/svg" viewBox="0 0 1200 400" width="1200" height="400" role="img" aria-labelledby="t d">
<title id="t">PDF Validation Portal</title>
<desc id="d">Accessibility checks for PDFs before they are published: two standards, up to 200 files per batch, results in minutes, deleted after 72 hours.</desc>
<defs><pattern id="g" width="24" height="24" patternUnits="userSpaceOnUse"><path d="M24 0H0V24" fill="none" stroke="#2c3549" stroke-width="1"/></pattern></defs>
<rect width="1200" height="400" rx="24" fill="#1d2433"/>
<rect width="1200" height="400" rx="24" fill="url(#g)" opacity=".6"/>
<path d="M1200 0v120l-120-120z" fill="#f3dcc3"/><path d="M1080 0l120 120h-90a30 30 0 0 1-30-30z" fill="#d7b28c"/>
<g transform="translate(64 56) scale(3.4)"><g transform="translate(-2 -2)"><polygon fill="#a33c0c" points="7 22 6 4 19 16"/><polygon fill="#1d2433" points="9 10 15.5 15.5 9.5 18.5"/><polygon fill="#f3dcc3" points="41 22 42 4 29 16"/><polygon fill="#d7b28c" points="42 4 35.5 10 41 13.5"/><polygon fill="#a33c0c" points="7 22 19 16 24 27"/><polygon fill="#d0561a" points="19 16 29 16 24 27"/><polygon fill="#ec7b36" points="29 16 41 22 24 27"/><polygon fill="#f7e6d3" points="7 22 24 27 24 44"/><polygon fill="#e9cfb4" points="41 22 24 27 24 44"/><polygon fill="#1d2433" points="13.5 22.8 19.5 24.4 16 26"/><polygon fill="#1d2433" points="34.5 22.8 28.5 24.4 32 26"/><polygon fill="#1d2433" points="20.5 39.5 27.5 39.5 24 44.5"/></g></g>
<text x="250" y="112" font-family="-apple-system, 'Segoe UI', Helvetica, Arial, sans-serif" font-size="18" letter-spacing="4" fill="#ec7b36" font-weight="600">PDF VALIDATION PORTAL</text>
<text x="250" y="170" font-family="Georgia, 'Times New Roman', serif" font-size="50" font-weight="700" fill="#fff7ee">Catch accessibility problems</text>
<text x="250" y="226" font-family="Georgia, 'Times New Roman', serif" font-size="50" font-weight="700" fill="#fff7ee">before a PDF goes public.</text>
<line x1="64" y1="266" x2="1136" y2="266" stroke="#3a4560" stroke-width="2"/>
<text x="64" y="318" font-family="Georgia, 'Times New Roman', serif" font-size="46" font-weight="700" fill="#fff7ee">2</text><text x="64" y="348" font-family="-apple-system, 'Segoe UI', Helvetica, Arial, sans-serif" font-size="17" letter-spacing="1.5" fill="#e6d2bd">STANDARDS CHECKED</text><text x="340" y="318" font-family="Georgia, 'Times New Roman', serif" font-size="46" font-weight="700" fill="#fff7ee">200</text><text x="340" y="348" font-family="-apple-system, 'Segoe UI', Helvetica, Arial, sans-serif" font-size="17" letter-spacing="1.5" fill="#e6d2bd">FILES PER BATCH</text><text x="616" y="318" font-family="Georgia, 'Times New Roman', serif" font-size="46" font-weight="700" fill="#fff7ee">5 min</text><text x="616" y="348" font-family="-apple-system, 'Segoe UI', Helvetica, Arial, sans-serif" font-size="17" letter-spacing="1.5" fill="#e6d2bd">MAX PER STANDARD</text><text x="892" y="318" font-family="Georgia, 'Times New Roman', serif" font-size="46" font-weight="700" fill="#fff7ee">72 h</text><text x="892" y="348" font-family="-apple-system, 'Segoe UI', Helvetica, Arial, sans-serif" font-size="17" letter-spacing="1.5" fill="#e6d2bd">THEN AUTO-DELETED</text>
</svg>